<svg xmlns="http://www.w3.org/2000/svg" width="32" height="32" fill="none" viewBox="0 0 32 32"><path fill-rule="evenodd" clip-rule="evenodd" d="M8.75 5a.75.75 0 00-.75.75v.833a.75.75 0 101.5 0V5.75A.75.75 0 008.75 5zM7 5.75a1.75 1.75 0 113.5 0v.833a1.75 1.75 0 01-3.45.415A.506.506 0 017 7a1 1 0 00-.999.997l.017.088c.016.079.04.184.074.316.067.263.163.613.28 1.023.233.819.544 1.86.856 2.888A473.596 473.596 0 008.368 16h1.36a.5.5 0 01.5.5c0 1.15.837 2 1.772 2s1.773-.85 1.773-2a.5.5 0 01.5-.5h1.36a608.16 608.16 0 001.139-3.688c.312-1.027.623-2.07.857-2.888.116-.41.212-.76.279-1.023a7.927 7.927 0 00.09-.404L18 7.99A1 1 0 0017 7c-.017 0-.033 0-.05-.002a1.75 1.75 0 01-3.45-.415V5.75a1.75 1.75 0 113.5 0V6a2 2 0 012 2c0 .093-.021.205-.038.288-.02.099-.05.22-.085.358-.07.278-.17.639-.287 1.052-.235.827-.549 1.876-.862 2.904A474.015 474.015 0 0116.68 16H17a.5.5 0 01.5.5 5.5 5.5 0 01-4.98 5.476C12.75 24.807 15.02 27 17.75 27c2.88 0 5.25-2.442 5.25-5.5v-1.035a3.501 3.501 0 111 0V21.5c0 3.57-2.778 6.5-6.25 6.5-3.315 0-5.998-2.672-6.233-6.02A5.5 5.5 0 016.5 16.5.5.5 0 017 16h.32a495.395 495.395 0 01-1.048-3.398 183.988 183.988 0 01-.862-2.904 38.924 38.924 0 01-.287-1.052 8.747 8.747 0 01-.085-.358A1.534 1.534 0 015 8a2 2 0 012-2v-.25zM16.473 17a4.5 4.5 0 01-8.946 0h.461a.45.45 0 00.023 0h1.255c.218 1.388 1.325 2.5 2.734 2.5 1.41 0 2.516-1.112 2.734-2.5H16.472zM26 17a2.5 2.5 0 11-5 0 2.5 2.5 0 015 0zM15.25 5a.75.75 0 00-.75.75v.833a.75.75 0 001.5 0V5.75a.75.75 0 00-.75-.75zm7.998 11.568a.5.5 0 10-.504-.864 1.5 1.5 0 102.049 2.057.5.5 0 10-.862-.508.5.5 0 11-.683-.685z" fill="#585163"/></svg>